<?xml version="1.0" encoding="UTF-8" standalone="no"?><!DOCTYPE svg PUBLIC "-//W3C//DTD SVG 1.1//EN" "http://www.w3.org/Graphics/SVG/1.1/DTD/svg11.dtd"><svg width="100%" height="100%" viewBox="0 0 128 128" version="1.1" xmlns="http://www.w3.org/2000/svg" xmlns:xlink="http://www.w3.org/1999/xlink" xml:space="preserve" xmlns:serif="http://www.serif.com/" style="fill-rule:evenodd;clip-rule:evenodd;stroke-linejoin:round;stroke-miterlimit:2;"><rect id="Logo-Circle-white" serif:id="Logo Circle white" x="0" y="0" width="128" height="128" style="fill:none;"/><ellipse cx="64" cy="64" rx="64" ry="64" style="fill:#fff;"/><path d="M46.401,74.765c-0.126,-0.275 -0.121,-0.591 0.014,-0.862c0.134,-0.27 0.384,-0.466 0.679,-0.531c2.009,-0.497 4.404,-1.568 6.919,-3.715c3.327,-2.841 6.819,-7.644 9.917,-15.967c0.584,-2.183 -0.713,-4.429 -2.896,-5.013c-2.182,-0.585 -4.429,0.713 -5.013,2.895c-1.227,7.283 -3.148,11.849 -5.487,14.637c-1.794,2.138 -3.646,3.185 -5.138,3.69c-0.511,0.153 -1.052,-0.125 -1.225,-0.63c-0.59,-1.72 -1.061,-3.47 -1.382,-5.254c-1.366,-7.61 0.955,-15.686 10,-24.876c1.894,-2.168 1.672,-5.465 -0.495,-7.359c-2.168,-1.894 -5.465,-1.672 -7.359,0.495c-5.029,6.493 -7.818,12.375 -9.041,17.825c-0.071,0.339 -0.311,0.617 -0.636,0.734c-0.325,0.118 -0.688,0.06 -0.959,-0.155c-0.502,-0.408 -1.001,-0.885 -1.468,-1.449c-0.86,-1.04 -1.46,-2.437 -1.858,-4.194c-0.687,-3.027 -0.161,-6.994 1.703,-12.486c0.57,-2.665 -1.131,-5.292 -3.796,-5.863c-2.666,-0.57 -5.293,1.131 -5.863,3.796c-0.975,10.066 0.865,16.03 3.657,19.771c2.383,3.193 5.354,4.785 7.756,5.578c0.419,0.131 0.703,0.521 0.7,0.96c-0.01,2.996 0.417,5.87 1.149,8.659c0.887,3.381 2.313,6.614 3.988,9.752c0.184,0.342 0.153,0.76 -0.079,1.071c-0.232,0.311 -0.624,0.46 -1.004,0.381c-0.482,-0.119 -1.012,-0.28 -1.589,-0.505c-2.313,-0.901 -5.026,-2.913 -8.584,-6.456c-1.635,-1.252 -3.979,-0.942 -5.232,0.692c-1.253,1.635 -0.943,3.979 0.692,5.232c5.226,3.025 9.046,4.348 11.999,4.782c2.483,0.365 4.353,0.161 5.732,-0.252c0.44,-0.147 0.923,0.03 1.164,0.426c5.684,9.275 12.098,17.953 11.003,27.525c-0.137,1.017 0.39,2.008 1.31,2.463c0.92,0.456 2.028,0.274 2.754,-0.452c-0,0 7.938,-7.891 15.891,-19.762c0.163,-0.243 0.326,-0.488 0.489,-0.734c0.258,-0.391 0.753,-0.55 1.19,-0.383c3.911,1.43 10.633,2.882 17.55,-0.234c5.053,-2.276 10.114,-7.001 14.466,-16.132c0.971,-2.618 -0.366,-5.532 -2.985,-6.503c-2.618,-0.971 -5.532,0.366 -6.503,2.984c-1.966,7.231 -4.763,11.547 -8.193,13.804c-3.951,2.601 -8.187,2.716 -11.29,2.252c-0.322,-0.055 -0.595,-0.265 -0.733,-0.561c-0.137,-0.296 -0.12,-0.64 0.045,-0.921c2.934,-5.039 5.661,-10.574 7.798,-16.454c0.751,-2.067 1.416,-4.169 1.98,-6.302c0.111,-0.422 0.484,-0.723 0.92,-0.744c2.535,-0.152 5.653,-0.901 8.566,-3.129c3.804,-2.909 7.182,-8.396 8.431,-18.99c0.039,-2.592 -2.033,-4.729 -4.626,-4.768c-2.592,-0.039 -4.728,2.034 -4.767,4.626c0.543,6.091 0.027,10.215 -1.51,13.001c-1.143,2.07 -2.653,3.339 -4.168,4.109c-0.329,0.154 -0.715,0.114 -1.006,-0.104c-0.29,-0.218 -0.436,-0.578 -0.38,-0.937c1.094,-7.378 0.888,-15.074 -1.201,-22.968c-1.398,-3.835 -5.647,-5.815 -9.483,-4.417c-3.836,1.398 -5.815,5.647 -4.417,9.483c2.168,4.52 3.589,9.036 4.009,13.671c0.708,7.815 -0.511,15.541 -2.84,22.643c-1.737,5.296 -3.988,10.233 -6.431,14.587c-3.037,5.413 -6.26,9.949 -8.865,13.28c-0.24,0.302 -0.632,0.44 -1.009,0.352c-0.376,-0.087 -0.668,-0.383 -0.75,-0.76c-2.062,-8.351 -8.094,-16.527 -12.21,-25.334Z" style="fill:url(#_Linear1);"/><defs><linearGradient id="_Linear1" x1="0" y1="0" x2="1" y2="0" gradientUnits="userSpaceOnUse" gradientTransform="matrix(32.4908,-65.0478,65.0478,32.4908,51.3318,108.418)"><stop offset="0" style="stop-color:#a20098;stop-opacity:1"/><stop offset="1" style="stop-color:#f56b6b;stop-opacity:1"/></linearGradient></defs></svg>